# xmcd
#
# Track frame offsets: 
#        150
#        22309
#        41646
#        63904
#        83790
#        110846
#        137506
#        157481
#        176363
#        194590
#        215563
#
# Disc length: 3062 seconds
#
# Revision: 0
# Processed by: cddbd v1.5.2PL0 Copyright (c) Steve Scherf et al.
# Submitted via: ExactAudioCopy v0.95b1
#
DISCID=a60bf40b
DTITLE=Denny Ilett - Callin' the Children Home
DYEAR=2008
DGENRE=Blues
TTITLE0=Callin' the Children Home
TTITLE1=My Babe
TTITLE2=I Only Got Myself to Blame
TTITLE3=Eyes in the Back of My Head
TTITLE4=Angel Eyes
TTITLE5=Pretty Eyed Baby
TTITLE6=Opposites Attract
TTITLE7=In the Keyhole
TTITLE8=If I Had My Time All Over Again
TTITLE9=Six Feet Under
TTITLE10=Wild Man Blues
EXTD=
EXTT0=
EXTT1=
EXTT2=
EXTT3=
EXTT4=
EXTT5=
EXTT6=
EXTT7=
EXTT8=
EXTT9=
EXTT10=
PLAYORDER=
